<mxfile host="app.diagrams.net" modified="2023-04-12T07:16:13.151Z" agent="Mozilla/5.0 (X11; Ubuntu; Linux x86_64; rv:109.0) Gecko/20100101 Firefox/111.0" etag="0u8PjR2N2PWti3rrn-Bi" version="21.1.5" type="github">
  <diagram name="Page-1" id="xWHHw9r5heIN4z77G9dG">
    <mxGraphModel dx="941" dy="503" grid="1" gridSize="10" guides="1" tooltips="1" connect="1" arrows="1" fold="1" page="1" pageScale="1" pageWidth="3300" pageHeight="4681" math="0" shadow="0">
      <root>
        <mxCell id="0" />
        <mxCell id="1" parent="0" />
        <mxCell id="RG0VA-y-oAgdiregmSR0-1" value="Владелец телефона" style="html=1;dropTarget=0;whiteSpace=wrap;" vertex="1" parent="1">
          <mxGeometry x="600" y="310" width="180" height="90" as="geometry" />
        </mxCell>
        <mxCell id="RG0VA-y-oAgdiregmSR0-2" value="" style="shape=module;jettyWidth=8;jettyHeight=4;" vertex="1" parent="RG0VA-y-oAgdiregmSR0-1">
          <mxGeometry x="1" width="20" height="20" relative="1" as="geometry">
            <mxPoint x="-27" y="7" as="offset" />
          </mxGeometry>
        </mxCell>
        <mxCell id="RG0VA-y-oAgdiregmSR0-3" value="Домашний адрес" style="html=1;dropTarget=0;whiteSpace=wrap;" vertex="1" parent="1">
          <mxGeometry x="360" y="220" width="130" height="80" as="geometry" />
        </mxCell>
        <mxCell id="RG0VA-y-oAgdiregmSR0-4" value="" style="shape=module;jettyWidth=8;jettyHeight=4;" vertex="1" parent="RG0VA-y-oAgdiregmSR0-3">
          <mxGeometry x="1" width="20" height="20" relative="1" as="geometry">
            <mxPoint x="-27" y="7" as="offset" />
          </mxGeometry>
        </mxCell>
        <mxCell id="RG0VA-y-oAgdiregmSR0-5" value="Телефон" style="html=1;dropTarget=0;whiteSpace=wrap;" vertex="1" parent="1">
          <mxGeometry x="360" y="400" width="130" height="70" as="geometry" />
        </mxCell>
        <mxCell id="RG0VA-y-oAgdiregmSR0-6" value="" style="shape=module;jettyWidth=8;jettyHeight=4;" vertex="1" parent="RG0VA-y-oAgdiregmSR0-5">
          <mxGeometry x="1" width="20" height="20" relative="1" as="geometry">
            <mxPoint x="-27" y="7" as="offset" />
          </mxGeometry>
        </mxCell>
        <mxCell id="RG0VA-y-oAgdiregmSR0-8" value="" style="endArrow=none;html=1;rounded=0;entryX=0;entryY=0.5;entryDx=0;entryDy=0;exitX=1;exitY=0.5;exitDx=0;exitDy=0;" edge="1" parent="1" source="RG0VA-y-oAgdiregmSR0-3" target="RG0VA-y-oAgdiregmSR0-1">
          <mxGeometry width="50" height="50" relative="1" as="geometry">
            <mxPoint x="670" y="410" as="sourcePoint" />
            <mxPoint x="720" y="360" as="targetPoint" />
          </mxGeometry>
        </mxCell>
        <mxCell id="RG0VA-y-oAgdiregmSR0-9" value="" style="endArrow=none;html=1;rounded=0;entryX=0;entryY=0.5;entryDx=0;entryDy=0;exitX=1;exitY=0.5;exitDx=0;exitDy=0;" edge="1" parent="1" target="RG0VA-y-oAgdiregmSR0-1">
          <mxGeometry width="50" height="50" relative="1" as="geometry">
            <mxPoint x="490" y="440" as="sourcePoint" />
            <mxPoint x="600" y="535" as="targetPoint" />
          </mxGeometry>
        </mxCell>
      </root>
    </mxGraphModel>
  </diagram>
</mxfile>
